<?xml version="1.0" encoding="utf-8" ?>
<svg xmlns="http://www.w3.org/2000/svg" xmlns:xlink="http://www.w3.org/1999/xlink" width="1024" height="1024">
	<path transform="scale(2 2)" d="M167.63 150.251C176.519 113.214 204.676 74.3241 241.98 63.3009C250.651 62.3811 250.633 77.4778 250.744 83.4934C255.603 81.5145 278.043 72.5059 281.79 77.4278C284.72 81.276 283.421 95.8158 282.713 100.541C277.14 137.724 252.292 163.397 223.512 184.729C232.885 197.105 226.918 207.742 233.911 214.963C239.399 220.63 245.601 219.026 252.615 218.774C327.968 216.073 394.229 266.977 400.092 344.971C400.482 350.154 400.391 355.325 400.299 360.515C415.916 356.735 435.106 360.989 435.144 380.424C435.188 402.238 410.345 422.743 389.536 424.668C384.955 425.091 380.342 424.762 375.748 424.761C372.767 426.856 370.244 429.653 367.426 431.978C347.644 448.301 329.257 448.948 305.491 448.962L251.351 448.966C244.917 448.964 234.162 450.167 228.302 447.052C218.832 442.019 217.53 431.087 222.319 422.237C230.864 408.313 252.104 401.665 267.476 401.798C264.665 397.303 261.164 393.151 258.224 388.704C249.51 385.939 237.41 384.223 228.017 381.817C220.958 396.421 208.289 407.632 203.818 423.731C202.881 427.105 202.605 431.094 200.718 434.098C191.731 448.399 151.548 455.219 147.036 433.366C124.673 430.736 121.675 406.175 139.845 395.81C147.096 391.674 151.879 393.248 157.204 385.132C163.366 375.739 164.413 361.473 162.239 350.676C159.741 348.273 157.111 345.999 154.669 343.541C133.35 322.085 122.451 292.281 129.817 262.264L128.558 262.275C115.497 262.262 99.4823 259.648 89.9671 249.991C63.6183 223.249 84.4698 198.441 106.152 176.979C124.073 159.24 142.066 150.1 167.63 150.251ZM239.457 76.0127C210.082 84.6021 184.98 124.754 178.285 152.434L180.956 152.434C182.299 152.905 183.641 153.411 185 153.831C201.749 124.859 209.092 109.001 239.457 88.8697C239.637 86.1517 240.191 78.3601 239.457 76.0127ZM271.529 88.8697C266.756 89.0751 262.363 90.7404 257.969 92.5105C227.042 104.971 206.907 132.175 193.734 161.879C192.229 165.272 186.952 180.051 184.407 181.7C181.058 183.87 176.244 181.258 176.276 177.287C176.311 172.905 179.471 168.003 180.956 163.931C142.912 153.596 113.499 179.22 93.9096 209.232C91.9347 212.258 89.8214 215.438 88.3161 218.725C93.0378 217.468 96.6702 212.411 100.122 214.452C103.302 216.333 103.884 220.475 101.872 223.414C99.3059 227.167 94.1794 228.154 90.0604 229.151C101.686 259.767 116.356 239.979 123.735 243.291C127.338 244.909 126.568 248.74 125.384 251.68C133.489 251.774 145.916 248.623 151.417 249.032C155.507 249.337 157.474 255.694 154.393 258.363C151.557 260.819 144.961 261.064 141.251 262.264C127.86 297.617 155.883 337.976 185.846 354.688C184.424 343.776 182.342 333.093 179.653 322.42C181.311 316.774 187.255 314.594 190.077 321.044C198.954 341.336 198.464 373.4 190.041 393.459C187.376 399.807 180.617 412.898 173.928 415.642C167.378 418.329 160.941 418.933 157.869 426.346C155.88 431.146 158.776 434.389 163.265 435.977C172.465 439.23 184.869 434.217 192.127 428.108C194.707 407.432 209.288 392.272 219.538 375.009C221.283 372.071 226.868 359.887 228.191 358.777C232.148 355.457 236.196 358.605 237.355 362.655C236.546 365.859 234.813 368.566 233.523 371.565C239.721 373.338 246.124 374.565 252.434 375.888C248.057 350.411 253.789 326.762 276.573 312.625C282.866 308.835 314.232 295.949 319.131 305.195C324.355 315.056 309.01 313.474 305.066 314.03C273.233 318.521 252.394 347.487 265.528 378.115C271.223 391.397 284.721 406.022 298.291 411.445C301.844 412.866 308.425 413.134 310.031 417.078C311.172 419.878 309.647 423.383 306.716 424.298C298.948 426.722 287.141 416.876 280.258 414.079C267.774 409.007 238.299 415.701 231.504 428.156C224.125 441.682 247.518 438.101 253.586 438.093L308.443 438.1C321.082 438.1 333.183 438.031 345.053 432.935C392.597 412.522 397.428 347.577 379.191 305.701C358.067 257.196 310.031 228.851 257.985 229.792C246.406 230.002 236.594 232.279 227.127 223.737C214.847 212.655 222.355 202.071 214.873 191.49C211.047 193.75 204.445 198.841 199.931 197.552C195.584 196.31 195.155 190.628 198.349 187.986C201.446 185.423 205.463 183.56 208.897 181.424C237.382 163.707 264.998 136.251 271.276 102.211C271.623 100.329 274.133 87.9396 271.529 88.8697ZM174.383 360.515C171.662 411.071 139.832 397.932 138.674 414.546C138.344 419.276 146.562 425.519 148.735 420.366C156.854 404.686 167.689 411.402 175.318 398.52C180.757 389.336 185.064 377.844 185.846 367.091C181.941 365.094 178.324 362.36 174.383 360.515ZM408.759 370.331C405.372 370.861 402.421 371.918 399.392 373.514C397.998 377.265 397.671 381.49 396.576 385.356C393.762 395.288 389.665 404.822 384.59 413.799C389.375 413.604 393.936 412.765 398.41 411.02C409.104 406.587 418.534 397.026 422.967 386.329C427.172 376.184 419.052 369.014 408.759 370.331Z"/>
	<path transform="scale(2 2)" d="M152.541 205.687C143.619 207.383 128.975 199.813 133.535 192.471C136.392 187.871 141.533 182.092 147.036 180.785C153.192 180.362 166.005 187.069 167.376 191.892C169.051 197.783 156.816 204.587 152.541 205.687ZM148.735 191.49C144.9 194.729 144.41 196.129 150.168 195.726C151.45 195.317 152.431 194.737 153.544 194.012C152.292 193.167 150.285 191.518 148.735 191.49Z"/>
</svg>
