<svg width="100" height="100" viewBox="0 0 100 100" fill="none" xmlns="http://www.w3.org/2000/svg">
  <!-- Cookie -->
  <circle cx="50" cy="50" r="40" fill="#F3D9A0" />
  <circle cx="35" cy="35" r="5" fill="#8B5E3C" />
  <circle cx="65" cy="40" r="5" fill="#8B5E3C" />
  <circle cx="40" cy="65" r="5" fill="#8B5E3C" />
  <circle cx="60" cy="65" r="5" fill="#8B5E3C" />
  
  <!-- Dog ears -->
  <path d="M25 25C25 25 15 15 10 25C5 35 15 40 25 25Z" fill="#8B5E3C" />
  <path d="M75 25C75 25 85 15 90 25C95 35 85 40 75 25Z" fill="#8B5E3C" />
  
  <!-- Dog face -->
  <circle cx="40" cy="45" r="3" fill="#4B3621" /> <!-- Left eye -->
  <circle cx="60" cy="45" r="3" fill="#4B3621" /> <!-- Right eye -->
  <ellipse cx="50" cy="55" rx="5" ry="3" fill="#4B3621" /> <!-- Nose -->
  <path d="M45 60C45 60 50 65 55 60" stroke="#4B3621" stroke-width="2" stroke-linecap="round" /> <!-- Smile -->
</svg> 